<svg width="505" height="672" viewBox="0 0 505 672" fill="none" xmlns="http://www.w3.org/2000/svg">
<path d="M446.402 134.873C479.85 186.699 490.51 242.569 498.596 297.336C506.682 352.471 511.828 406.136 483.893 427.454C455.591 448.773 393.84 437.746 337.97 470.092C282.1 502.805 231.744 578.891 173.301 594.329C114.491 609.399 47.5939 563.453 20.0266 501.702C-7.54077 439.952 3.85374 362.028 45.7561 317.92C87.6585 274.18 159.334 263.888 206.382 214.634C253.798 165.381 276.219 77.1651 315.916 56.9491C355.613 36.3654 412.586 83.4137 446.402 134.873Z" fill="#1e40af"/>
<path d="M263.823 418.288V668.159" stroke="#FFB000" stroke-width="6" stroke-miterlimit="10"/>
<path d="M361.992 418.288V668.159" stroke="#FFB000" stroke-width="6" stroke-miterlimit="10"/>
<path d="M262.874 627.989H360.79" stroke="#FFB000" stroke-width="6" stroke-miterlimit="10"/>
<path d="M377.59 384.799H247.276C242.899 384.799 239.35 388.789 239.35 393.712V409.375C239.35 414.297 242.899 418.288 247.276 418.288H377.59C381.967 418.288 385.516 414.297 385.516 409.375V393.712C385.516 388.789 381.967 384.799 377.59 384.799Z" fill="white" stroke="#6562CF" stroke-width="6" stroke-miterlimit="10"/>
<path d="M359.597 143.551C367.675 141.002 378.845 112.794 366.606 97.5168C354.367 82.2399 328.434 81.7785 306.419 85.4863C286.068 88.9152 259.338 102.191 269.525 130.823C284.012 171.535 359.597 143.551 359.597 143.551Z" fill="#FFB819"/>
<path d="M347.42 124.341C355.054 122.527 368.171 108.243 356.643 97.3719C345.115 86.5005 327.361 85.4434 308.451 89.0762C289.542 92.7089 269.945 100.227 278.94 120.837C287.934 141.448 347.42 124.341 347.42 124.341Z" fill="#F49C00"/>
<path d="M392.477 665.674C387.539 669.092 357.335 668.894 351.633 665.674C345.931 662.455 347.267 651.572 346.318 644.307C345.368 637.041 331.879 623.38 331.121 618.674C330.362 613.968 344.987 603.719 347.525 599.544C345.435 606.477 366.358 607.995 368.042 603.504C367.222 619.956 377.972 646.11 386.79 648.471C392.339 649.963 397.416 662.256 392.477 665.674Z" fill="#DBDAFF"/>
<path d="M372.547 585.512L368.033 603.504C366.358 607.995 345.435 606.477 347.516 599.544C349.596 592.611 348.809 580.565 348.809 580.565L372.547 585.512Z" fill="#C36F0B"/>
<path d="M331.125 618.695C331.889 623.396 345.373 637.068 346.327 644.334C347.282 651.599 345.946 662.492 351.643 665.696C357.34 668.899 387.548 669.114 392.487 665.696" stroke="#6562CF" stroke-width="7" stroke-miterlimit="10" stroke-linecap="round"/>
<path d="M369.207 648.449C369.207 648.449 379.227 643.416 389.199 647.376" stroke="white" stroke-width="6" stroke-miterlimit="10" stroke-linecap="round"/>
<path d="M254.844 665.674C259.782 669.092 286.646 668.894 292.347 665.674C298.049 662.455 301.485 651.572 302.434 644.307C303.384 637.041 312.579 620.697 313.337 615.991C314.096 611.285 299.471 601.036 296.933 596.861C299.023 603.794 278.577 607.995 276.893 603.504C277.713 619.956 269.344 646.11 260.531 648.471C254.977 649.963 249.905 662.256 254.844 665.674Z" fill="#DBDAFF"/>
<path d="M266.662 584.439L276.902 603.504C278.577 607.995 299.023 603.794 296.942 596.861C294.862 589.928 294.218 578.955 294.218 578.955L266.662 584.439Z" fill="#C36F0B"/>
<path d="M313.337 616.012C312.579 620.713 303.384 637.068 302.434 644.334C301.485 651.599 298.045 662.492 292.343 665.696C286.641 668.899 259.782 669.114 254.839 665.696" stroke="#6562CF" stroke-width="7" stroke-miterlimit="10" stroke-linecap="round"/>
<path d="M278.114 648.449C278.114 648.449 268.118 643.416 258.122 647.376" stroke="white" stroke-width="6" stroke-miterlimit="10" stroke-linecap="round"/>
<path d="M263.919 312.471C263.919 312.471 164.548 367.204 164.548 400.87C164.548 460.926 253.426 587.605 268.69 585.941C283.954 584.278 298.989 580.645 298.403 573.38C297.816 566.114 265.851 452.195 241.011 418.47C241.011 418.47 250.077 402.421 306.729 403.124C334.031 403.462 357.836 405.549 358.423 406.542C359.01 407.534 328.74 473.97 344.185 576.696C345.535 585.646 378.821 589.402 382.047 584.45C385.272 579.497 436.938 405.061 431.952 391.179C426.966 377.297 375.171 327.582 349.911 312.455C331.717 301.568 263.919 312.471 263.919 312.471Z" fill="#3F4D79"/>
<path d="M235.543 138.91C222.941 146.69 204.108 216.464 204.108 216.464C204.108 216.464 158.731 153.827 156.632 153.237C154.532 152.647 142.341 170.944 142.341 170.944C142.341 170.944 166.032 289.897 202.987 292.542C218.499 293.653 231.616 283.533 242.385 268.744C247.157 286.64 251.613 301.396 251.613 301.396C253.522 308.908 217.907 329.594 226.033 335.277C226.033 335.277 253.76 325.135 302.687 339.322C361.186 356.3 389.467 343.422 383.936 338.485C378.406 333.549 369.722 317.499 366.721 306.762L372.117 248.981C372.117 248.981 391.003 302.888 419.551 302.888C453.605 302.888 484.729 185.808 484.729 185.808C472.624 185.422 462.595 175.699 462.595 175.699C449.797 185.808 423.163 221.223 423.163 221.223C423.163 221.223 406.563 164.79 398.609 151.954C390.655 139.119 364.731 129.004 347.42 124.341L278.94 120.837C274.345 119.85 246.264 130.673 235.543 138.91Z" fill="#FFB000"/>
<path d="M423.163 218.862C414.503 230.061 406.677 249.985 406.677 249.985" stroke="#F49C00" stroke-width="6" stroke-miterlimit="10"/>
<path d="M368.763 132.846C335.515 129.686 302.134 153.205 302.134 153.205C302.134 153.205 272.789 145.81 266.92 123.842" stroke="#F49C00" stroke-width="6" stroke-miterlimit="10"/>
<path d="M252.568 301.396C252.568 301.396 234.216 242.113 231.654 217.113" stroke="#F49C00" stroke-width="6" stroke-miterlimit="10" stroke-linecap="round"/>
<path d="M483.77 143.095C483.327 146.288 480.239 151.241 483.293 151.203C484.868 151.203 496.253 149.116 497.646 153.827C498.235 156.066 498.129 158.464 497.345 160.626C499.841 164.817 497.932 168.24 497.932 168.24C499.44 170.848 499.841 174.223 498.791 175.709C498.791 175.709 501.43 182.551 498.91 184.139C491.104 189.076 478.655 190.101 472.624 188.346C468.392 187.117 463.315 184.177 462.017 174.046C461.483 169.898 465.157 159.021 467.962 154.535C469.108 152.689 473.302 145.327 474.719 143.31C476.739 140.356 478.115 136.91 478.736 133.249C478.736 133.249 485.011 134.177 483.77 143.095Z" fill="#C36F0B"/>
<path d="M493.977 153.199C494.253 155.346 482.625 155.796 480.616 156.29C477.753 156.988 478.126 163.861 481.838 163.191C486.889 162.931 491.905 162.117 496.816 160.76" stroke="#B65A18" stroke-width="4" stroke-miterlimit="10" stroke-linecap="round"/>
<path d="M497.173 168.31C484.873 171.1 481.59 170.842 481.59 170.842C479.796 171.24 477.486 164.108 481.838 163.191" stroke="#B65A18" stroke-width="4" stroke-miterlimit="10" stroke-linecap="round"/>
<path d="M497.479 175.468C485.903 178.328 481.895 178.001 481.895 178.001C480.182 178.231 478.04 171.449 481.537 170.982" stroke="#B65A18" stroke-width="4" stroke-miterlimit="10" stroke-linecap="round"/>
<path d="M485.135 177.888C485.135 177.888 480.998 177.453 481.06 180.351C481.175 185.502 483.393 186.055 493.867 183.892" stroke="#B65A18" stroke-width="4" stroke-miterlimit="10" stroke-linecap="round"/>
<path d="M140.07 127.26C140.165 130.48 142.67 135.771 139.669 135.309C138.114 135.073 127.115 131.483 125.235 135.932C124.411 138.058 124.256 140.438 124.796 142.677C121.886 146.465 123.394 150.103 123.394 150.103C121.628 152.469 120.869 155.743 121.743 157.352C121.743 157.352 118.403 163.733 120.712 165.643C127.869 171.578 140.037 174.287 146.173 173.381C150.467 172.747 155.797 170.542 158.173 160.733C159.127 156.719 156.699 145.521 154.423 140.691C153.492 138.711 150.152 130.882 148.969 128.698C147.304 125.508 146.324 121.925 146.106 118.235C146.106 118.235 139.812 118.299 140.07 127.26Z" fill="#C36F0B"/>
<path d="M125.708 166.104C135.799 169.667 138.047 169.42 138.72 164.36C138.93 162.751 137.713 162.015 136.611 161.677C137.12 161.79 137.635 161.87 138.152 161.919C139.688 162.343 142.289 156.456 139.984 154.83C140.938 154.294 141.95 150.447 141.945 147.028C143.725 145.644 143.854 141.539 141.783 140.718C139.831 139.951 128.423 137.906 128.9 135.835L125.708 166.104Z" fill="#C36F0B"/>
<path d="M125.889 142.897C130.405 144.857 135.072 146.344 139.831 147.34C143.415 148.504 144.527 141.781 141.783 140.702C139.831 139.935 130.703 136.592 128.9 135.824" stroke="#B65A18" stroke-width="3" stroke-miterlimit="10" stroke-linecap="round"/>
<path d="M124.725 150.291C136.549 154.718 139.249 154.916 139.249 154.916C140.972 155.55 144.021 148.842 139.831 147.34" stroke="#B65A18" stroke-width="3" stroke-miterlimit="10" stroke-linecap="round"/>
<path d="M123.088 157.277C134.187 161.683 138.176 161.903 138.176 161.903C139.841 162.37 142.165 155.335 138.08 154.729" stroke="#B65A18" stroke-width="3" stroke-miterlimit="10" stroke-linecap="round"/>
<path d="M134.964 161.372C134.964 161.372 139.092 161.511 138.72 164.36C138.047 169.421 135.804 169.662 125.713 166.104" stroke="#B65A18" stroke-width="3" stroke-miterlimit="10" stroke-linecap="round"/>
<path d="M332.896 74.1642C332.896 74.1642 325.629 110.728 347.42 124.341C347.42 124.341 327.38 128.231 301.766 151.954C301.766 151.954 282.051 133.286 278.94 120.832C278.94 120.832 298.98 113.057 296.923 74.1481L332.896 74.1642Z" fill="#C36F0B"/>
<path d="M332.896 74.1643H296.923C298.999 113.062 278.94 120.848 278.94 120.848C278.94 120.848 318.939 120.848 330.252 80.7429L332.896 74.1643Z" fill="#B65A18"/>
<path d="M334.27 73.8047C334.27 73.8047 323.586 97.227 298.059 97.2378C275.289 97.2378 271.816 22.0769 305.727 21.0413C338.039 20.054 333.879 63.0513 333.879 63.0513C333.879 63.0513 339.695 59.2469 341.809 63.2069C343.923 67.167 334.27 73.8047 334.27 73.8047Z" fill="#C36F0B"/>
<path d="M319.311 23.8477C319.311 23.8477 318.944 36.8601 302.926 36.6616C289.017 36.4899 281.392 45.3437 280.648 51.7184" stroke="#3F4D79" stroke-width="3" stroke-miterlimit="10" stroke-linecap="round"/>
<path d="M363.233 49.5452C363.233 63.722 348.017 75.9779 331.168 84.2951C330.171 84.7888 328.558 84.9014 326.516 84.719C329.594 81.5612 332.211 77.8779 334.27 73.8047C334.27 73.8047 343.865 67.0758 341.79 63.2069C339.714 59.3381 333.859 63.0459 333.859 63.0459C333.859 63.0459 336.775 33.0771 318.934 23.7672C318.796 24.057 314.163 33.2435 300.469 33.7318C287.442 34.1879 283.888 39.7738 282.399 45.612C282.351 45.8159 282.303 46.0144 282.261 46.2183C280.582 53.9839 280.181 62.0294 281.077 69.9573L281.001 69.9251C279.736 68.1972 262.459 43.5729 266.968 30.3673C271.868 16.0134 303.188 -4.23232 328.263 0.779472C342.267 3.58586 363.228 42.0919 363.233 49.5452Z" fill="#3F4D79"/>
<path d="M249.666 252.738H57.4944C54.8575 252.734 52.288 251.799 50.1481 250.067C48.0081 248.334 46.4054 245.89 45.5657 243.079L4.83617 106.693C4.38876 105.194 4.26488 103.597 4.47477 102.034C4.68465 100.47 5.22227 98.9857 6.04322 97.7023C6.86416 96.4189 7.94487 95.3736 9.19604 94.6528C10.4472 93.932 11.833 93.5562 13.2388 93.5567H205.411C208.048 93.5615 210.617 94.4959 212.757 96.2285C214.896 97.9612 216.499 100.405 217.34 103.215L258.045 239.57C258.498 241.068 258.626 242.666 258.42 244.232C258.214 245.797 257.68 247.285 256.861 248.572C256.042 249.859 254.962 250.908 253.711 251.632C252.46 252.357 251.074 252.735 249.666 252.738Z" fill="#C7BFFF"/>
<path d="M245.281 258.055H53.1046C50.4677 258.051 47.8983 257.117 45.7583 255.384C43.6183 253.652 42.0156 251.208 41.1759 248.397L0.460711 112.037C0.0134317 110.539 -0.110507 108.942 0.0991302 107.379C0.308767 105.817 0.845965 104.332 1.66637 103.049C2.48677 101.766 3.56684 100.72 4.8174 99.9991C6.06796 99.2779 7.45313 98.9016 8.85855 98.9012H201.026C203.663 98.9052 206.232 99.8393 208.372 101.572C210.512 103.305 212.115 105.749 212.955 108.56L253.665 244.919C254.112 246.416 254.236 248.011 254.027 249.573C253.818 251.135 253.282 252.618 252.463 253.901C251.645 255.184 250.567 256.23 249.318 256.952C248.069 257.674 246.686 258.052 245.281 258.055Z" fill="white"/>
<path d="M249.667 252.298H57.4946C54.8575 252.294 52.2877 251.361 50.1476 249.628C48.0075 247.895 46.4049 245.45 45.5658 242.639L4.83635 106.279C4.38894 104.781 4.26507 103.184 4.47495 101.62C4.68483 100.057 5.22246 98.5725 6.0434 97.2891C6.86435 96.0058 7.94505 94.9605 9.19623 94.2396C10.4474 93.5188 11.8331 93.1431 13.239 93.1435H205.411C208.048 93.1483 210.617 94.0827 212.757 95.8154C214.897 97.548 216.499 99.9916 217.34 102.802L258.064 239.162C258.512 240.66 258.636 242.257 258.426 243.819C258.216 245.382 257.679 246.866 256.859 248.15C256.038 249.433 254.958 250.478 253.708 251.2C252.457 251.921 251.072 252.297 249.667 252.298Z" stroke="#6562CF" stroke-width="6" stroke-miterlimit="10"/>
<path d="M166.547 209.558L181.167 250.473H149.57C149.57 250.473 155.711 218.465 166.547 209.558Z" fill="#E2E2FF"/>
<path d="M187.561 301.788C125.345 301.788 151.507 226.917 163.88 211.366H115.998C103.63 226.927 70.158 305.898 132.369 305.898H187.561V301.788Z" fill="white" stroke="#6562CF" stroke-width="6" stroke-miterlimit="10"/>
<path d="M134.747 175.681C137.428 170.904 135.264 163.953 129.913 160.155C124.563 156.357 118.052 157.15 115.371 161.927C112.69 166.704 114.854 173.655 120.205 177.452C125.555 181.25 132.066 180.457 134.747 175.681Z" fill="#E2E2FF"/>
<path d="M137.803 172.781C140.484 168.005 138.32 161.054 132.969 157.256C127.619 153.458 121.108 154.251 118.427 159.028C115.746 163.804 117.91 170.755 123.261 174.553C128.611 178.351 135.122 177.558 137.803 172.781Z" stroke="#6562CF" stroke-width="6" stroke-miterlimit="10"/>
<path d="M44.7163 305.898H329.656C333.845 305.898 337.242 309.461 337.242 313.861C337.242 318.256 333.845 321.819 329.656 321.819H44.7163V305.898Z" fill="white"/>
<path d="M44.7163 305.898H329.656C333.845 305.898 337.242 309.461 337.242 313.861C337.242 318.256 333.845 321.819 329.656 321.819H44.7163" stroke="#6562CF" stroke-width="6" stroke-miterlimit="10"/>
</svg>
